<svg width="64" height="64" viewBox="0 0 64 64" fill="none" xmlns="http://www.w3.org/2000/svg">
<path d="M32.0002 58.6667C46.7278 58.6667 58.6668 46.7276 58.6668 32C58.6668 17.2724 46.7278 5.33334 32.0002 5.33334C17.2726 5.33334 5.3335 17.2724 5.3335 32C5.3335 46.7276 17.2726 58.6667 32.0002 58.6667Z" fill="#8FCE65"/>
<path d="M26.6668 38.9067L43.4668 22.1067C43.98 21.6732 44.6379 21.4493 45.309 21.4799C45.9801 21.5105 46.6149 21.7932 47.0866 22.2716C47.5582 22.75 47.8319 23.3888 47.853 24.0602C47.874 24.7317 47.6409 25.3863 47.2001 25.8933L28.5335 44.56C28.035 45.0486 27.3648 45.3223 26.6668 45.3223C25.9688 45.3223 25.2986 45.0486 24.8001 44.56L16.8001 36.56C16.3594 36.053 16.1262 35.3983 16.1473 34.7269C16.1684 34.0554 16.4421 33.4167 16.9137 32.9383C17.3854 32.4599 18.0202 32.1771 18.6913 32.1466C19.3624 32.116 20.0203 32.3398 20.5335 32.7733L26.6668 38.9067Z" fill="white"/>
</svg>
